<svg id="Capa_1" data-name="Capa 1" xmlns="http://www.w3.org/2000/svg" viewBox="0 0 1000 1000"><defs><style>.cls-1{fill:#202423;}.cls-2{fill:#1d9bf0;}</style></defs><title>Mesa de trabajo 1</title><circle class="cls-1" cx="500" cy="500" r="500"/><path class="cls-2" d="M584.6,333.75v109.8h-8.66q-4.22-31.6-15.1-50.34a78.66,78.66,0,0,0-31-29.73,85.91,85.91,0,0,0-41.67-11q-24.36,0-40.27,14.86T432,401.17q0,14.52,10.06,26.46,14.52,17.55,69.07,46.82,44.48,23.88,60.75,36.64a89.35,89.35,0,0,1,25,30.09,79.14,79.14,0,0,1,8.78,36.28q0,36.06-28,62.16t-72,26.11a151.74,151.74,0,0,1-26-2.11q-7.26-1.17-30.09-8.54t-28.91-7.38q-5.85,0-9.25,3.51t-5,14.52h-8.66V556.86h8.66Q412.53,591,422.83,608t31.49,28.21a97.62,97.62,0,0,0,46.47,11.24q29.26,0,46.24-15.46t17-36.52q0-11.7-6.44-23.64t-20-22.25q-9.12-7-49.86-29.85t-57.95-36.4q-17.21-13.58-26.1-30a74.32,74.32,0,0,1-8.9-36.05q0-34.18,26.22-58.88t66.73-24.7q25.27,0,53.61,12.41Q554.4,352,559.79,352a14,14,0,0,0,10-3.63q3.85-3.63,6.2-14.63Z"/></svg>